<svg id="Layer_1" data-name="Layer 1" xmlns="http://www.w3.org/2000/svg" viewBox="0 0 16 16"><defs><style>.cls-1{fill:#2e5feb;}</style></defs><path class="cls-1" d="M15.81,2.83V13c0,.14,0,.14-.14.14H6.15C6,13.17,6,13.17,6,13v-.94C6,12,6,12,6.1,12a7.62,7.62,0,0,0,1.51,0,18.17,18.17,0,0,0,5.07-1.39,8.32,8.32,0,0,0,1.87-1.09l.09-.07-.1-.09-1-.56-.69-.41h-.12c-.44.35-.87.71-1.31,1.05A9.81,9.81,0,0,1,9,10.77a6.78,6.78,0,0,1-1.66.38H6.2c-.19,0-.19,0-.19-.23v-.61h.55a3.69,3.69,0,0,0,1.28-.16A7.2,7.2,0,0,0,10.16,9a11.93,11.93,0,0,0,1.92-1.77c.11-.12.1-.1,0-.21A8.25,8.25,0,0,0,8.19,4.43a5.86,5.86,0,0,0-1.5-.23H6.1c-.1,0-.1,0-.1-.09V2.93a.17.17,0,0,0,0-.1Z"/><path class="cls-1" d="M6,4.24v.68H5.92C5.61,5,5.29,5,5,5.1A5.89,5.89,0,0,0,2,7c-.23.27-.21.17-.08.48A6.71,6.71,0,0,0,3.63,10a4.61,4.61,0,0,0,2.27,1.1c.15,0,.15,0,.15.17v.51c0,.12,0,.12-.12.1a5.86,5.86,0,0,1-1.69-.44A6.63,6.63,0,0,1,1.85,9.83,8.89,8.89,0,0,1,.21,7.24a.14.14,0,0,1,0-.19A12.32,12.32,0,0,1,4,4.69a7.4,7.4,0,0,1,1.8-.44Z"/><path class="cls-1" d="M6,6.75a1.54,1.54,0,0,1,1.22.68c.17.24.32.5.48.75l.08.12L9.14,7.17l-.07-.1A3.64,3.64,0,0,0,7.25,6a3.09,3.09,0,0,0-1.09-.07C6,5.91,6,5.91,6,5.77V5.09C6,5,6,5,6.12,5A4.82,4.82,0,0,1,9.54,6.2a6.45,6.45,0,0,1,.91.9s.05.07,0,.12a7.86,7.86,0,0,1-2.22,2,3.32,3.32,0,0,1-1.14.41,2.4,2.4,0,0,1-1-.08S6,9.52,6,9.49V6.75Z"/><path class="cls-1" d="M6,5.93v.73H5.91a1.78,1.78,0,0,0-.72.14,2.7,2.7,0,0,0-.92.65.17.17,0,0,0,0,.1A3.3,3.3,0,0,0,5.46,9.31l.44.23c.06,0,.09.05.09.11a5,5,0,0,0,0,.55c0,.07,0,.09-.1.07A3.72,3.72,0,0,1,3.5,8.55,5.14,5.14,0,0,1,3,7.49a.12.12,0,0,1,0-.16A5.15,5.15,0,0,1,5.56,6Z"/></svg>